<?xml version="1.0" encoding="UTF-8"?>
<svg id="Layer_1" data-name="Layer 1" xmlns="http://www.w3.org/2000/svg" viewBox="0 0 2142.55 51.14">
  <defs>
    <style>
      .cls-1 {
        fill: #fff;
      }
    </style>
  </defs>
  <path class="cls-1" d="m0,51.07C528.86,31.97,1057.77-3.29,1587.29.25c105.92.59,211.85,2.55,317.69,7.05,66.2,3.15,132.46,5.99,198.36,13.61,6.61.83,13.22,1.74,19.86,2.93,3.33.61,6.65,1.26,10.07,2.21,2.48.78,5.02,1.39,7.23,3.18.32.27.73.66,1.14,1.24.39.58.87,1.47.91,2.66.07,1.17-.35,2.23-.78,2.91-.83,1.2-2.01,2.08-3.06,2.55-3.68,1.71-6.97,2.15-10.66,2.88-9.94,1.67-19.96,2.55-29.95,3.35-66.12,4.61-132.42,5.22-198.62,6.03-51.23.39-107.41.41-158.84.04-.64-.02-.66-.98,0-1,76.92-1.55,161.64-3.26,238.1-6.11,46.15-1.95,92.43-3.26,138.31-8.61,6.04-.9,12.53-1.53,18.07-3.74.21-.1.34-.21.24-.13-.03.03-.19.16-.37.45-.23.33-.48.98-.45,1.74.05.77.32,1.28.49,1.52.17.25.29.33.29.35-4.13-1.93-8.87-2.56-13.52-3.44-19.43-3.14-39.15-4.7-58.82-6.29-197.87-13.27-396.53-15.17-594.81-16.15C979.54,6.69,485.25,40.31,0,51.07h0Z"/>
</svg>